<?xml version="1.0" encoding="iso-8859-1"?>
<!-- Generator: Adobe Illustrator 19.0.0, SVG Export Plug-In . SVG Version: 6.00 Build 0)  -->
<svg version="1.1" id="Capa_1" xmlns="http://www.w3.org/2000/svg" xmlns:xlink="http://www.w3.org/1999/xlink" x="0px" y="0px"
	 viewBox="0 0 512 512" style="enable-background:new 0 0 512 512;" xml:space="preserve">
<g>
	<g>
		<g>
			<path d="M42.688,196.267H8.555c-4.713,0-8.533,3.82-8.533,8.533s3.82,8.533,8.533,8.533h34.133c4.713,0,8.533-3.821,8.533-8.533
				S47.401,196.267,42.688,196.267z"/>
			<path d="M42.688,298.667H8.555c-4.713,0-8.533,3.82-8.533,8.533s3.82,8.533,8.533,8.533h34.133c4.713,0,8.533-3.82,8.533-8.533
				S47.401,298.667,42.688,298.667z"/>
			<path d="M42.688,247.467H8.555c-4.713,0-8.533,3.82-8.533,8.533c0,4.713,3.82,8.533,8.533,8.533h34.133
				c4.713,0,8.533-3.82,8.533-8.533C51.221,251.287,47.401,247.467,42.688,247.467z"/>
			<path d="M511.936,255.497c-0.051-0.735-0.198-1.461-0.435-2.159c-0.081-0.291-0.181-0.576-0.299-0.853
				c-0.404-0.953-0.982-1.821-1.707-2.56l-42.667-42.667c-3.348-3.234-8.671-3.188-11.962,0.104
				c-3.292,3.292-3.338,8.614-0.104,11.962l28.126,28.143H298.816c0.102-12.863,0.435-25.603,0.998-38.221L463.8,120.807
				l-11.366,38.033c-0.917,2.934-0.186,6.134,1.915,8.378c2.101,2.244,5.246,3.185,8.234,2.462s5.356-2.995,6.201-5.951
				l17.28-57.813c0-0.085,0-0.171,0-0.256c0.304-0.976,0.425-2,0.358-3.021v-0.043c0-0.128-0.077-0.239-0.094-0.367
				c-0.132-0.844-0.388-1.663-0.759-2.432c-0.161-0.311-0.343-0.611-0.546-0.896c-0.34-0.526-0.738-1.013-1.186-1.451
				c-0.264-0.278-0.549-0.535-0.853-0.768c-0.632-0.459-1.324-0.83-2.057-1.101c-0.196-0.077-0.333-0.222-0.538-0.29
				c-0.057-0.004-0.114-0.004-0.171,0l-57.643-17.28c-4.515-1.355-9.273,1.207-10.628,5.722s1.207,9.273,5.722,10.628l38.033,11.452
				l-154.923,83.516c2.921-56.613,11.968-112.743,26.982-167.407c1.544-5.178,0.533-10.782-2.722-15.095
				C321.836,2.506,316.765-0.03,311.386,0H200.632c-5.379-0.03-10.45,2.506-13.653,6.827c-3.261,4.317-4.271,9.929-2.722,15.113
				c15.577,56.911,24.764,115.381,27.392,174.327H85.355c-4.713,0-8.533,3.82-8.533,8.533s3.82,8.533,8.533,8.533h127.061
				c0.444,11.292,0.714,22.67,0.811,34.133H85.355c-4.713,0-8.533,3.82-8.533,8.533c0,4.713,3.82,8.533,8.533,8.533h127.872
				c-0.085,11.469-0.356,22.847-0.811,34.133H85.355c-4.713,0-8.533,3.82-8.533,8.533s3.82,8.533,8.533,8.533h126.293
				c-2.618,58.951-11.797,117.427-27.366,174.345c-1.532,5.161-0.538,10.743,2.681,15.059s8.285,6.86,13.669,6.863h110.78
				c5.384-0.004,10.45-2.548,13.669-6.863c3.219-4.316,4.212-9.897,2.681-15.059c-14.942-54.393-23.969-110.24-26.923-166.571
				l154.863,83.576l-38.05,11.409c-4.515,1.355-7.077,6.113-5.722,10.628c1.355,4.515,6.113,7.077,10.628,5.722l57.498-17.237
				c0.085,0,0.171,0,0.256-0.043c0.23-0.068,0.384-0.239,0.606-0.324c0.703-0.262,1.368-0.615,1.98-1.05
				c0.3-0.25,0.585-0.518,0.853-0.802c0.437-0.429,0.826-0.904,1.161-1.417c0.204-0.292,0.389-0.597,0.555-0.913
				c0.366-0.761,0.619-1.572,0.751-2.406c0-0.137,0.085-0.256,0.102-0.384v-0.051c0.089-1.016-0.009-2.04-0.29-3.021
				c0-0.085,0-0.171,0-0.256l-17.28-57.805c-0.844-2.956-3.213-5.229-6.201-5.951s-6.133,0.219-8.234,2.462
				c-2.101,2.244-2.832,5.444-1.915,8.378l11.366,38.025l-163.917-88.465c-0.569-12.897-0.913-25.913-1.033-39.049h184.073
				l-28.1,28.1c-2.218,2.143-3.108,5.315-2.327,8.299c0.781,2.984,3.111,5.314,6.094,6.094c2.984,0.781,6.156-0.109,8.299-2.327
				l42.667-42.667c0.077-0.077,0.102-0.179,0.171-0.256c0.714-0.728,1.292-1.577,1.707-2.509c0-0.068,0-0.145,0.051-0.222
				c0.322-0.864,0.501-1.775,0.529-2.697C511.979,256.06,511.979,255.787,511.936,255.497z M282.919,205.176
				c-0.785,16.734-1.297,33.673-1.297,50.825c0,17.493,0.529,34.765,1.34,51.857c0,0.179,0,0.358,0,0.538
				c2.295,63.065,11.841,125.657,28.45,186.539l-110.746-0.06c16.61-60.997,26.142-123.703,28.407-186.88
				c0.065-0.262,0.116-0.526,0.154-0.794c0-0.171-0.085-0.316-0.094-0.486c0.776-16.717,1.289-33.647,1.289-50.714
				s-0.512-33.997-1.289-50.714c0-0.171,0.094-0.316,0.094-0.486c-0.038-0.258-0.089-0.515-0.154-0.768
				c-2.266-63.208-11.809-125.943-28.442-186.965l110.746,0.06c-16.566,60.822-26.089,123.346-28.382,186.342
				C282.913,204.034,282.887,204.606,282.919,205.176z"/>
		</g>
	</g>
</g>
<g>
</g>
<g>
</g>
<g>
</g>
<g>
</g>
<g>
</g>
<g>
</g>
<g>
</g>
<g>
</g>
<g>
</g>
<g>
</g>
<g>
</g>
<g>
</g>
<g>
</g>
<g>
</g>
<g>
</g>
</svg>
