<svg id="Layer_1" enable-background="new 0 0 511.787 511.787" height="512" viewBox="0 0 511.787 511.787" width="512" xmlns="http://www.w3.org/2000/svg"><path d="m0 10.479v90.004h163.377c3.966 29.91 22.149 55.391 47.515 69.411v38.256h-58.334v30h206.672v-30h-58.334v-38.256c25.366-14.02 43.549-39.501 47.515-69.411h163.377v-90.004zm270.896 197.671h-30.004v-27.877c4.886.793 9.896 1.211 15.002 1.211s10.116-.419 15.002-1.211zm-15.002-56.666c-30.702 0-56.363-21.963-62.118-51.001h124.237c-5.756 29.039-31.417 51.001-62.119 51.001zm225.893-81.001h-451.787v-30.004h451.787z"/><path d="m240.894 271.294h30v30.002h-30z"/><path d="m180.89 321.297h30v30.002h-30z"/><path d="m300.897 321.297h30v30.002h-30z"/><path d="m330.899 371.3h30v30.002h-30z"/><path d="m150.888 371.3h30v30.002h-30z"/><path d="m360.901 421.303h30v30.002h-30z"/><path d="m120.886 421.303h30v30.002h-30z"/><path d="m240.894 471.307h30v30.001h-30z"/><path d="m240.894 421.303h30v30.002h-30z"/><path d="m240.894 371.3h30v30.002h-30z"/><path d="m240.894 321.297h30v30.002h-30z"/><path d="m390.903 471.307h30v30.001h-30z"/><path d="m350.9 271.294h30v30.002h-30z"/><path d="m380.902 321.297h30v30.002h-30z"/><path d="m410.904 371.3h30v30.002h-30z"/><path d="m440.906 421.303h30v30.002h-30z"/><path d="m470.908 471.307h30v30.001h-30z"/><path d="m90.884 471.307h30v30.001h-30z"/><path d="m130.887 271.294h30v30.002h-30z"/><path d="m100.885 321.297h30v30.002h-30z"/><path d="m70.883 371.3h30v30.002h-30z"/><path d="m40.881 421.303h30v30.002h-30z"/><path d="m10.879 471.307h30v30.001h-30z"/></svg>