<?xml version="1.0" encoding="iso-8859-1"?>
<!-- Generator: Adobe Illustrator 19.0.0, SVG Export Plug-In . SVG Version: 6.00 Build 0)  -->
<svg version="1.1" id="Capa_1" xmlns="http://www.w3.org/2000/svg" xmlns:xlink="http://www.w3.org/1999/xlink" x="0px" y="0px"
	 viewBox="0 0 497.472 497.472" style="enable-background:new 0 0 497.472 497.472;" xml:space="preserve">
<g>
	<g>
		<g>
			<path d="M419.248,64c-53.74,0.15-105.305-21.208-143.2-59.312L271.36,0h-45.248l-4.688,4.688
				C183.529,42.792,131.963,64.15,78.224,64H56.736v224c0,123.904,178,203.328,185.6,206.656l6.4,2.816l6.4-2.816
				c7.6-3.328,185.6-82.752,185.6-206.656V64H419.248z M408.736,288c0,91.296-129.408,159.488-160,174.4
				c-30.64-14.88-160-82.928-160-174.4V95.76C144.963,93.414,198.433,70.761,239.232,32h19.008
				c40.799,38.761,94.269,61.414,150.496,63.76V288z"/>
			<path d="M236.128,102.16C225.952,115.2,136.736,231.12,136.736,288c0,61.856,50.144,112,112,112s112-50.144,112-112
				c0-56.88-89.216-172.8-99.392-185.84L248.736,86L236.128,102.16z M328.736,288c0,44.183-35.817,80-80,80s-80-35.817-80-80
				c0-30.736,44.88-101.84,80-149.504C283.936,186.144,328.736,257.232,328.736,288z"/>
			<rect x="248.736" y="288" width="32" height="32"/>
		</g>
	</g>
</g>
<g>
</g>
<g>
</g>
<g>
</g>
<g>
</g>
<g>
</g>
<g>
</g>
<g>
</g>
<g>
</g>
<g>
</g>
<g>
</g>
<g>
</g>
<g>
</g>
<g>
</g>
<g>
</g>
<g>
</g>
</svg>
